<svg id="Artwork" xmlns="http://www.w3.org/2000/svg" viewBox="0 0 116.82 67.07"><defs><style>.cls-1{fill:#008aab;}.cls-2{fill:#fff;}</style></defs><path class="cls-1" d="M-231.4,98.45a16.7,16.7,0,0,0,11,4.15,16.69,16.69,0,0,0,11-4.15l.69-.59-1.75-2-.68.6a14.09,14.09,0,0,1-9.28,3.49,14.1,14.1,0,0,1-9.29-3.49l-.68-.6-1.75,2Z" transform="translate(278.58 -35.53)"/><path class="cls-2" d="M-278.58,70.53V55.26a11.93,11.93,0,0,1,11.94-11.95,11.94,11.94,0,0,1,12,11.95,12,12,0,0,1-12,12,11.93,11.93,0,0,1-8.7-3.76v7ZM-266.64,64a8.76,8.76,0,0,0,8.76-8.75,8.72,8.72,0,0,0-8.76-8.71,8.7,8.7,0,0,0-8.7,8.71A8.74,8.74,0,0,0-266.64,64Z" transform="translate(278.58 -35.53)"/><path class="cls-2" d="M-242.09,63.84a12.38,12.38,0,0,0,1.71.17,8.78,8.78,0,0,0,8.58-7.13h3.28a12,12,0,0,1-11.86,10.37,12,12,0,0,1-12-12,12,12,0,0,1,12-11.95A11.92,11.92,0,0,1-229.22,51Zm-3.19-1.36,12.12-12.12a8.82,8.82,0,0,0-7.22-3.81,8.74,8.74,0,0,0-8.75,8.71A8.69,8.69,0,0,0-245.28,62.48Z" transform="translate(278.58 -35.53)"/><path class="cls-2" d="M-214.3,43.27v3.24A8.77,8.77,0,0,0-223,55.26V67h-3.24V55.26A12,12,0,0,1-214.3,43.27Z" transform="translate(278.58 -35.53)"/><path class="cls-2" d="M-210.41,39.9a2.19,2.19,0,0,1-2.18-2.19,2.16,2.16,0,0,1,2.18-2.18,2.16,2.16,0,0,1,2.19,2.18A2.19,2.19,0,0,1-210.41,39.9Zm1.62,3.68V67H-212V43.58Z" transform="translate(278.58 -35.53)"/><path class="cls-2" d="M-234.16,84.83a12,12,0,0,1-12,12,12,12,0,0,1-12-12,12,12,0,0,1,12-11.94A11.93,11.93,0,0,1-234.16,84.83Zm-3.24,0a8.7,8.7,0,0,0-8.71-8.7,8.74,8.74,0,0,0-8.75,8.7,8.77,8.77,0,0,0,8.75,8.75A8.74,8.74,0,0,0-237.4,84.83Z" transform="translate(278.58 -35.53)"/><path class="cls-2" d="M-208.41,84.83a12,12,0,0,1-11.94,12,12,12,0,0,1-12-12,12,12,0,0,1,12-11.94A11.93,11.93,0,0,1-208.41,84.83Zm-3.24,0a8.69,8.69,0,0,0-8.7-8.7,8.73,8.73,0,0,0-8.75,8.7,8.77,8.77,0,0,0,8.75,8.75A8.73,8.73,0,0,0-211.65,84.83Z" transform="translate(278.58 -35.53)"/><path class="cls-2" d="M-258.64,72.89v3.24a8.76,8.76,0,0,0-8.71,8.75V96.65h-3.24V84.88A12,12,0,0,1-258.64,72.89Z" transform="translate(278.58 -35.53)"/><path class="cls-1" d="M-183.52,41.68a16.74,16.74,0,0,0-11-4.14,16.74,16.74,0,0,0-11,4.14l-.69.6,1.75,2,.68-.6a14.1,14.1,0,0,1,9.29-3.49,14.09,14.09,0,0,1,9.28,3.49l.68.6,1.75-2Z" transform="translate(278.58 -35.53)"/><path class="cls-2" d="M-206.51,55.3a12,12,0,0,1,11.94-12,12,12,0,0,1,12,12,12,12,0,0,1-12,12A11.93,11.93,0,0,1-206.51,55.3Zm3.24,0a8.7,8.7,0,0,0,8.7,8.71,8.73,8.73,0,0,0,8.75-8.71,8.77,8.77,0,0,0-8.75-8.75A8.74,8.74,0,0,0-203.27,55.3Z" transform="translate(278.58 -35.53)"/><path class="cls-2" d="M-173.71,73a12,12,0,0,0-10.43,6.17A12,12,0,0,0-194.57,73a12,12,0,0,0-11.94,12V96.74h3.24V85a8.77,8.77,0,0,1,8.7-8.75A8.77,8.77,0,0,1-185.86,85V96.74h3.45V85a8.77,8.77,0,0,1,8.7-8.75A8.77,8.77,0,0,1-165,85V96.74h3.24V85A12,12,0,0,0-173.71,73Z" transform="translate(278.58 -35.53)"/></svg>